<?xml version="1.0" encoding="UTF-8"?>
<!--Generator: Apple Native CoreSVG 341-->
<!DOCTYPE svg
PUBLIC "-//W3C//DTD SVG 1.1//EN"
       "http://www.w3.org/Graphics/SVG/1.1/DTD/svg11.dtd">
<svg version="1.1" xmlns="http://www.w3.org/2000/svg" xmlns:xlink="http://www.w3.org/1999/xlink" viewBox="0 0 3300 2200">
 <!--glyph: "", point size: 100.0, font version: "21.1d1e1", template writer version: "138.0.0"-->
 <style>.SFSymbolsPreviewWireframe {fill:none;opacity:1.0;stroke:black;stroke-width:0.5}
</style>
 <g id="Notes">
  <rect height="2200" id="artboard" style="fill:white;opacity:1" width="3300" x="0" y="0"/>
  <line style="fill:none;stroke:black;opacity:1;stroke-width:0.5;" x1="263" x2="3036" y1="292" y2="292"/>
  <text style="stroke:none;fill:black;font-family:sans-serif;font-size:13;font-weight:bold;" transform="matrix(1 0 0 1 263 322)">Weight/Scale Variations</text>
  <text style="stroke:none;fill:black;font-family:sans-serif;font-size:13;text-anchor:middle;" transform="matrix(1 0 0 1 559.711 322)">Ultralight</text>
  <text style="stroke:none;fill:black;font-family:sans-serif;font-size:13;text-anchor:middle;" transform="matrix(1 0 0 1 856.422 322)">Thin</text>
  <text style="stroke:none;fill:black;font-family:sans-serif;font-size:13;text-anchor:middle;" transform="matrix(1 0 0 1 1153.13 322)">Light</text>
  <text style="stroke:none;fill:black;font-family:sans-serif;font-size:13;text-anchor:middle;" transform="matrix(1 0 0 1 1449.84 322)">Regular</text>
  <text style="stroke:none;fill:black;font-family:sans-serif;font-size:13;text-anchor:middle;" transform="matrix(1 0 0 1 1746.56 322)">Medium</text>
  <text style="stroke:none;fill:black;font-family:sans-serif;font-size:13;text-anchor:middle;" transform="matrix(1 0 0 1 2043.27 322)">Semibold</text>
  <text style="stroke:none;fill:black;font-family:sans-serif;font-size:13;text-anchor:middle;" transform="matrix(1 0 0 1 2339.98 322)">Bold</text>
  <text style="stroke:none;fill:black;font-family:sans-serif;font-size:13;text-anchor:middle;" transform="matrix(1 0 0 1 2636.69 322)">Heavy</text>
  <text style="stroke:none;fill:black;font-family:sans-serif;font-size:13;text-anchor:middle;" transform="matrix(1 0 0 1 2933.4 322)">Black</text>
  <line style="fill:none;stroke:black;opacity:1;stroke-width:0.5;" x1="263" x2="3036" y1="1903" y2="1903"/>
  <g transform="matrix(0.2 0 0 0.2 263 1933)">
   <path d="m46.2402 4.15039c21.7773 0 39.4531-17.627 39.4531-39.4043s-17.6758-39.4043-39.4531-39.4043c-21.7285 0-39.4043 17.627-39.4043 39.4043s17.6758 39.4043 39.4043 39.4043Zm0-7.42188c-17.6758 0-31.9336-14.3066-31.9336-31.9824s14.2578-31.9824 31.9336-31.9824 31.9824 14.3066 31.9824 31.9824-14.3066 31.9824-31.9824 31.9824Zm3.61328-17.7734v-28.4668c0-2.24609-1.46484-3.75977-3.71094-3.75977-2.14844 0-3.61328 1.51367-3.61328 3.75977v28.4668c0 2.19727 1.46484 3.71094 3.61328 3.71094 2.24609 0 3.71094-1.51367 3.71094-3.71094Zm-17.8223-10.5957h28.418c2.19727 0 3.71094-1.46484 3.71094-3.61328 0-2.19727-1.51367-3.71094-3.71094-3.71094h-28.418c-2.24609 0-3.75977 1.51367-3.75977 3.71094 0 2.14844 1.51367 3.61328 3.75977 3.61328Z"/>
  </g>
  <g transform="matrix(0.2 0 0 0.2 281.506 1933)">
   <path d="m58.5449 14.5508c27.4902 0 49.8047-22.3145 49.8047-49.8047s-22.3145-49.8047-49.8047-49.8047-49.8047 22.3145-49.8047 49.8047 22.3145 49.8047 49.8047 49.8047Zm0-8.30078c-22.9492 0-41.5039-18.5547-41.5039-41.5039s18.5547-41.5039 41.5039-41.5039 41.5039 18.5547 41.5039 41.5039-18.5547 41.5039-41.5039 41.5039Zm4.05273-23.0957v-36.9141c0-2.49023-1.70898-4.19922-4.15039-4.19922-2.39258 0-4.05273 1.70898-4.05273 4.19922v36.9141c0 2.44141 1.66016 4.15039 4.05273 4.15039 2.44141 0 4.15039-1.66016 4.15039-4.15039Zm-22.5586-14.4043h36.9629c2.44141 0 4.15039-1.61133 4.15039-4.00391 0-2.44141-1.70898-4.15039-4.15039-4.15039h-36.9629c-2.49023 0-4.15039 1.70898-4.15039 4.15039 0 2.39258 1.66016 4.00391 4.15039 4.00391Z"/>
  </g>
  <g transform="matrix(0.2 0 0 0.2 304.924 1933)">
   <path d="m74.8535 28.3203c35.1074 0 63.623-28.4668 63.623-63.5742s-28.5156-63.623-63.623-63.623-63.5742 28.5156-63.5742 63.623 28.4668 63.5742 63.5742 63.5742Zm0-9.08203c-30.127 0-54.4922-24.3652-54.4922-54.4922s24.3652-54.4922 54.4922-54.4922 54.4922 24.3652 54.4922 54.4922-24.3652 54.4922-54.4922 54.4922Zm4.44336-30.3223v-48.4863c0-2.73438-1.85547-4.63867-4.54102-4.63867-2.58789 0-4.44336 1.9043-4.44336 4.63867v48.4863c0 2.68555 1.85547 4.58984 4.44336 4.58984 2.68555 0 4.54102-1.85547 4.54102-4.58984Zm-28.7109-19.7754h48.4863c2.68555 0 4.58984-1.80664 4.58984-4.39453 0-2.73438-1.85547-4.58984-4.58984-4.58984h-48.4863c-2.73438 0-4.58984 1.85547-4.58984 4.58984 0 2.58789 1.85547 4.39453 4.58984 4.39453Z"/>
  </g>
  <text style="stroke:none;fill:black;font-family:sans-serif;font-size:13;font-weight:bold;" transform="matrix(1 0 0 1 263 1953)">Design Variations</text>
  <text style="stroke:none;fill:black;font-family:sans-serif;font-size:13;" transform="matrix(1 0 0 1 263 1971)">Symbols are supported in up to nine weights and three scales.</text>
  <text style="stroke:none;fill:black;font-family:sans-serif;font-size:13;" transform="matrix(1 0 0 1 263 1989)">For optimal layout with text and other symbols, vertically align</text>
  <text style="stroke:none;fill:black;font-family:sans-serif;font-size:13;" transform="matrix(1 0 0 1 263 2007)">symbols with the adjacent text.</text>
  <line style="fill:none;stroke:#00AEEF;stroke-width:0.5;opacity:1.0;" x1="776" x2="776" y1="1919" y2="1933"/>
  <g transform="matrix(0.2 0 0 0.2 776 1933)">
   <path d="m16.5527 0.78125c2.58789 0 3.85742-0.976562 4.78516-3.71094l20.5566-57.5195h0.244141l20.6055 57.5195c0.927734 2.73438 2.19727 3.71094 4.73633 3.71094 2.58789 0 4.24805-1.5625 4.24805-4.00391 0-0.830078-0.146484-1.61133-0.537109-2.63672l-22.9004-60.9863c-1.12305-2.97852-3.125-4.49219-6.25-4.49219-3.02734 0-5.07812 1.46484-6.15234 4.44336l-22.9004 61.084c-0.390625 1.02539-0.537109 1.80664-0.537109 2.63672 0 2.44141 1.5625 3.95508 4.10156 3.95508Zm10.2051-20.9473h30.6641c2.00195 0 3.66211-1.66016 3.66211-3.66211 0-2.05078-1.66016-3.66211-3.66211-3.66211h-30.6641c-2.00195 0-3.66211 1.61133-3.66211 3.66211 0 2.00195 1.66016 3.66211 3.66211 3.66211Z"/>
  </g>
  <line style="fill:none;stroke:#00AEEF;stroke-width:0.5;opacity:1.0;" x1="792.836" x2="792.836" y1="1919" y2="1933"/>
  <text style="stroke:none;fill:black;font-family:sans-serif;font-size:13;font-weight:bold;" transform="matrix(1 0 0 1 776 1953)">Margins</text>
  <text style="stroke:none;fill:black;font-family:sans-serif;font-size:13;" transform="matrix(1 0 0 1 776 1971)">Leading and trailing margins on the left and right side of each symbol</text>
  <text style="stroke:none;fill:black;font-family:sans-serif;font-size:13;" transform="matrix(1 0 0 1 776 1989)">can be adjusted by modifying the x-location of the margin guidelines.</text>
  <text style="stroke:none;fill:black;font-family:sans-serif;font-size:13;" transform="matrix(1 0 0 1 776 2007)">Modifications are automatically applied proportionally to all</text>
  <text style="stroke:none;fill:black;font-family:sans-serif;font-size:13;" transform="matrix(1 0 0 1 776 2025)">scales and weights.</text>
  <g transform="matrix(0.2 0 0 0.2 1289 1933)">
   <path d="m14.209 13.1348 7.86133 7.86133c4.29688 4.39453 9.32617 4.10156 13.8672-1.02539l60.6934-68.2129-4.88281-4.88281-60.2539 67.6758c-1.80664 1.95312-3.4668 2.44141-5.81055 0.0976562l-5.17578-5.12695c-2.29492-2.29492-1.80664-3.95508 0.195312-5.81055l67.4805-62.1582-4.88281-4.83398-68.0664 62.5977c-4.98047 4.58984-5.32227 9.47266-1.02539 13.8184Zm44.873-97.4609c-2.05078 2.00195-2.24609 4.88281-1.07422 6.78711 1.12305 1.80664 3.4668 3.02734 6.5918 2.24609 5.85938-1.66016 12.5977-2.39258 18.8965 0.927734l-2.68555 7.12891c-1.61133 4.00391-0.732422 6.88477 1.70898 9.42383l10.2539 10.3027c2.34375 2.39258 4.54102 2.44141 7.08008 1.95312l4.44336-0.732422 2.58789 2.53906-0.195312 2.24609c-0.0976562 2.29492 0.537109 4.29688 2.7832 6.49414l3.36914 3.32031c2.29492 2.29492 5.51758 2.49023 7.8125 0.195312l12.9883-13.0371c2.29492-2.34375 2.14844-5.37109-0.195312-7.66602l-3.41797-3.41797c-2.19727-2.19727-4.05273-3.02734-6.34766-2.88086l-2.34375 0.244141-2.44141-2.44141 1.02539-4.6875c0.634766-2.73438-0.244141-4.98047-2.88086-7.61719l-11.2793-11.1816c-12.9395-12.8418-35.5957-11.0352-46.6797-0.146484Zm7.08008 2.05078c8.78906-6.39648 25.9766-5.66406 33.6914 1.95312l12.3047 12.207c1.02539 1.02539 1.2207 1.80664 0.927734 3.32031l-1.46484 6.64062 6.73828 6.68945 4.39453-0.244141c1.12305-0.0488281 1.51367 0.0488281 2.34375 0.878906l2.53906 2.49023-10.8398 10.8398-2.49023-2.49023c-0.830078-0.878906-0.976562-1.2207-0.927734-2.39258l0.292969-4.3457-6.68945-6.73828-6.83594 1.17188c-1.41602 0.292969-2.05078 0.195312-3.17383-0.878906l-8.93555-8.88672c-1.07422-1.02539-1.17188-1.70898-0.488281-3.36914l4.58984-11.4746c-6.10352-6.34766-17.041-7.51953-25.5859-4.58984-0.683594 0.244141-0.927734-0.390625-0.390625-0.78125Z"/>
  </g>
  <text style="stroke:none;fill:black;font-family:sans-serif;font-size:13;font-weight:bold;" transform="matrix(1 0 0 1 1289 1953)">Exporting</text>
  <text style="stroke:none;fill:black;font-family:sans-serif;font-size:13;" transform="matrix(1 0 0 1 1289 1971)">Symbols should be outlined when exporting to ensure the</text>
  <text style="stroke:none;fill:black;font-family:sans-serif;font-size:13;" transform="matrix(1 0 0 1 1289 1989)">design is preserved when submitting to Xcode.</text>
  <text id="template-version" style="stroke:none;fill:black;font-family:sans-serif;font-size:13;text-anchor:end;" transform="matrix(1 0 0 1 3036 1933)">Template v.7.0</text>
  <text style="stroke:none;fill:black;font-family:sans-serif;font-size:13;text-anchor:end;" transform="matrix(1 0 0 1 3036 1951)">Requires Xcode 26 or greater</text>
  <text id="descriptive-name" style="stroke:none;fill:black;font-family:sans-serif;font-size:13;text-anchor:end;" transform="matrix(1 0 0 1 3036 1969)">Generated from logo.github</text>
  <text style="stroke:none;fill:black;font-family:sans-serif;font-size:13;text-anchor:end;" transform="matrix(1 0 0 1 3036 1987)">Typeset at 100.0 points</text>
  <text style="stroke:none;fill:black;font-family:sans-serif;font-size:13;" transform="matrix(1 0 0 1 263 726)">Small</text>
  <text style="stroke:none;fill:black;font-family:sans-serif;font-size:13;" transform="matrix(1 0 0 1 263 1156)">Medium</text>
  <text style="stroke:none;fill:black;font-family:sans-serif;font-size:13;" transform="matrix(1 0 0 1 263 1586)">Large</text>
 </g>
 <g id="Guides">
  <g id="H-reference" style="fill:#27AAE1;stroke:none;" transform="matrix(1 0 0 1 339 696)">
   <path d="M0.993654 0L3.63775 0L29.3281-67.1323L30.0303-67.1323L30.0303-70.459L28.1226-70.459ZM11.6885-24.4799L46.9815-24.4799L46.2315-26.7285L12.4385-26.7285ZM55.1196 0L57.7637 0L30.6382-70.459L29.4326-70.459L29.4326-67.1323Z"/>
  </g>
  <line id="Baseline-S" style="fill:none;stroke:#27AAE1;opacity:1;stroke-width:0.5;" x1="263" x2="3036" y1="696" y2="696"/>
  <line id="Capline-S" style="fill:none;stroke:#27AAE1;opacity:1;stroke-width:0.5;" x1="263" x2="3036" y1="625.541" y2="625.541"/>
  <g id="H-reference" style="fill:#27AAE1;stroke:none;" transform="matrix(1 0 0 1 339 1126)">
   <path d="M0.993654 0L3.63775 0L29.3281-67.1323L30.0303-67.1323L30.0303-70.459L28.1226-70.459ZM11.6885-24.4799L46.9815-24.4799L46.2315-26.7285L12.4385-26.7285ZM55.1196 0L57.7637 0L30.6382-70.459L29.4326-70.459L29.4326-67.1323Z"/>
  </g>
  <line id="Baseline-M" style="fill:none;stroke:#27AAE1;opacity:1;stroke-width:0.5;" x1="263" x2="3036" y1="1126" y2="1126"/>
  <line id="Capline-M" style="fill:none;stroke:#27AAE1;opacity:1;stroke-width:0.5;" x1="263" x2="3036" y1="1055.54" y2="1055.54"/>
  <g id="H-reference" style="fill:#27AAE1;stroke:none;" transform="matrix(1 0 0 1 339 1556)">
   <path d="M0.993654 0L3.63775 0L29.3281-67.1323L30.0303-67.1323L30.0303-70.459L28.1226-70.459ZM11.6885-24.4799L46.9815-24.4799L46.2315-26.7285L12.4385-26.7285ZM55.1196 0L57.7637 0L30.6382-70.459L29.4326-70.459L29.4326-67.1323Z"/>
  </g>
  <line id="Baseline-L" style="fill:none;stroke:#27AAE1;opacity:1;stroke-width:0.5;" x1="263" x2="3036" y1="1556" y2="1556"/>
  <line id="Capline-L" style="fill:none;stroke:#27AAE1;opacity:1;stroke-width:0.5;" x1="263" x2="3036" y1="1485.54" y2="1485.54"/>
  <line id="right-margin-Regular-M" style="fill:none;stroke:#00AEEF;stroke-width:0.5;opacity:1.0;" x1="1508.68" x2="1508.68" y1="1030.79" y2="1150.12"/>
  <line id="left-margin-Regular-M" style="fill:none;stroke:#00AEEF;stroke-width:0.5;opacity:1.0;" x1="1391.01" x2="1391.01" y1="1030.79" y2="1150.12"/>
  <line id="right-margin-Black-S" style="fill:none;stroke:#00AEEF;stroke-width:0.5;opacity:1.0;" x1="2983.39" x2="2983.39" y1="600.785" y2="720.121"/>
  <line id="left-margin-Black-S" style="fill:none;stroke:#00AEEF;stroke-width:0.5;opacity:1.0;" x1="2883.41" x2="2883.41" y1="600.785" y2="720.121"/>
  <line id="right-margin-Regular-S" style="fill:none;stroke:#00AEEF;stroke-width:0.5;opacity:1.0;" x1="1498.28" x2="1498.28" y1="600.785" y2="720.121"/>
  <line id="left-margin-Regular-S" style="fill:none;stroke:#00AEEF;stroke-width:0.5;opacity:1.0;" x1="1401.41" x2="1401.41" y1="600.785" y2="720.121"/>
  <line id="right-margin-Ultralight-S" style="fill:none;stroke:#00AEEF;stroke-width:0.5;opacity:1.0;" x1="604.849" x2="604.849" y1="600.785" y2="720.121"/>
  <line id="left-margin-Ultralight-S" style="fill:none;stroke:#00AEEF;stroke-width:0.5;opacity:1.0;" x1="514.573" x2="514.573" y1="600.785" y2="720.121"/>
 </g>
 <g id="Symbols">
  <g id="Black-L" transform="matrix(1 0 0 1 2857.02 1556)">
   <path class="SFSymbolsPreviewWireframe" d="M76.4787-102.716C38.7241-102.716 8.11557-72.1074 8.11557-34.3528C8.11557-4.23839 27.6729 21.4795 54.828 30.4373C58.2363 31.0934 59.5513 28.9576 59.5513 27.191C59.5513 25.5466 59.5513 21.3148 59.3892 15.6033C40.3685 19.7128 36.4209 6.48076 36.4209 6.48076C33.3393-1.36922 28.7807-3.4626 28.7807-3.4626C22.5751-7.69445 29.2748-7.69182 29.2748-7.69182C36.1366-7.19772 39.7123-0.66534 39.7123-0.66534C45.7532 9.77212 55.6541 6.81016 59.5566 5.04617C60.2127 0.649626 61.9794-2.42932 63.9505-4.07369C48.7897-5.83767 32.8505-11.7139 32.8505-37.8062C32.8505-45.2817 35.4804-51.3226 39.877-56.1682C39.2182-57.9322 36.798-64.7966 40.5358-74.2458C40.5358-74.2458 46.2473-76.0549 59.2723-67.2618C64.6544-68.7415 70.5306-69.5199 76.3643-69.5623C82.1955-69.5623 88.0717-68.7415 93.4564-67.2618C106.482-76.0549 112.193-74.2458 112.193-74.2458C115.931-64.7966 113.508-57.9322 112.852-56.1682C117.249-51.4422 119.879-45.2817 119.879-37.8062C119.879-11.5943 103.939-5.76314 88.656-4.11877C91.1212-2.02539 93.2172 2.20646 93.2172 8.57414C93.2172 17.694 93.0976 25.0499 93.0976 27.308C93.0976 29.117 94.3701 31.2104 97.8206 30.5542C125.335 21.3148 144.893-4.24102 144.893-34.3554C144.842-72.11 114.234-102.716 76.4787-102.716Z"/>
  </g>
  <g id="Heavy-L" transform="matrix(1 0 0 1 2561.07 1556)">
   <path class="SFSymbolsPreviewWireframe" d="M75.6963-101.689C38.3806-101.689 8.11557-71.4242 8.11557-34.1084C8.11557-4.33754 27.4627 21.0845 54.2938 29.9469C57.6544 30.5934 58.9597 28.477 58.9597 26.7386C58.9597 25.104 58.9597 20.9198 58.8073 15.2657C40.0152 19.3461 36.0872 6.23855 36.0872 6.23855C33.0435-1.54429 28.5423-3.59972 28.5423-3.59972C22.3941-7.78388 29.0364-7.77152 29.0364-7.77152C35.8311-7.27742 39.3688-0.812179 39.3688-0.812179C45.3523 9.52019 55.1296 6.56795 58.9844 4.84193C59.6308 0.49306 61.3692-2.53821 63.3209-4.17284C48.3226-5.89887 32.5741-11.7177 32.5741-37.5424C32.5741-44.9226 35.1846-50.9061 39.5335-55.6757C38.8747-57.4017 36.5022-64.2087 40.1923-73.5529C40.1923-73.5529 45.8464-75.3523 58.7283-66.6545C64.053-68.1245 69.8718-68.8747 75.6297-68.9356C81.3752-68.9356 87.194-68.1245 92.531-66.6545C105.413-75.3523 111.067-73.5529 111.067-73.5529C114.757-64.2087 112.372-57.4017 111.726-55.6757C116.075-50.9974 118.685-44.9226 118.685-37.5424C118.685-11.6263 102.937-5.8808 87.8347-4.24616C90.2805-2.19073 92.3482 1.99343 92.3482 8.29398C92.3482 17.3088 92.2569 24.5975 92.2569 26.8176C92.2569 28.617 93.5011 30.6724 96.9228 30.0259C124.028 20.9198 143.375-4.34991 143.375-34.1208C143.277-71.4365 113.012-101.689 75.6963-101.689Z"/>
  </g>
  <g id="Bold-L" transform="matrix(1 0 0 1 2265.4 1556)">
   <path class="SFSymbolsPreviewWireframe" d="M74.6207-100.346C37.9079-100.346 8.11557-70.5538 8.11557-33.841C8.11557-4.54278 27.1687 20.4717 53.5606 29.2039C56.8561 29.8336 58.1446 27.7507 58.1446 26.0439C58.1446 24.4261 58.1446 20.307 58.009 14.7348C39.5258 18.7649 35.6312 5.83794 35.6312 5.83794C32.636-1.84623 28.2167-3.8533 28.2167-3.8533C22.1504-7.97234 28.7108-7.94321 28.7108-7.94321C35.4067-7.44911 38.8961-1.08254 38.8961-1.08254C44.7977 9.1028 54.4132 6.16734 58.2028 4.48966C58.8325 0.205926 60.5393-2.76021 62.4574-4.37808C47.6881-6.05575 32.2001-11.7927 32.2001-37.2414C32.2001-44.4913 34.7771-50.3929 39.0608-55.0659C38.402-56.7435 36.0947-63.4686 39.7196-72.6658C39.7196-72.6658 45.2918-74.4483 57.9783-65.8809C63.2211-67.334 68.958-68.0526 74.6192-68.1284C80.2512-68.1284 85.9881-67.334 91.26-65.8809C103.947-74.4483 109.519-72.6658 109.519-72.6658C113.144-63.4686 110.807-56.7435 110.178-55.0659C114.461-50.4527 117.038-44.4913 117.038-37.2414C117.038-11.7328 101.55-6.10083 86.692-4.48297C89.1042-2.4759 91.1404 1.64314 91.1404 7.84501C91.1404 16.7128 91.0806 23.9028 91.0806 26.0746C91.0806 27.8572 92.2933 29.8642 95.6646 29.2346C122.236 20.307 141.289-4.57191 141.289-33.8701C141.126-70.583 111.334-100.346 74.6207-100.346Z"/>
  </g>
  <g id="Semibold-L" transform="matrix(1 0 0 1 1969.41 1556)">
   <path class="SFSymbolsPreviewWireframe" d="M73.8792-99.4203C37.5821-99.4203 8.11557-69.9538 8.11557-33.6566C8.11557-4.68426 26.9659 20.0493 53.0551 28.6917C56.3058 29.3098 57.5827 27.2501 57.5827 25.565C57.5827 23.9587 57.5827 19.8846 57.4587 14.3688C39.1884 18.3642 35.317 5.56176 35.317 5.56176C32.355-2.05438 27.9922-4.02812 27.9922-4.02812C21.9823-8.10226 28.4863-8.06156 28.4863-8.06156C35.1142-7.56746 38.5703-1.26892 38.5703-1.26892C44.4154 8.81506 53.9193 5.89116 57.6641 4.24682C58.2822 0.00797801 59.9672-2.91326 61.8622-4.51956C47.2507-6.1639 31.9423-11.8443 31.9423-37.0339C31.9423-44.194 34.4961-50.0392 38.735-54.6454C38.0762-56.2898 35.8137-62.9584 39.3938-72.0542C39.3938-72.0542 44.9095-73.8252 57.4613-65.3475C62.6477-66.7891 68.3281-67.486 73.9226-67.5719C79.4764-67.5719 85.1568-66.7891 90.3838-65.3475C102.935-73.8252 108.451-72.0542 108.451-72.0542C112.031-62.9584 109.728-56.2898 109.11-54.6454C113.349-50.0772 115.902-44.194 115.902-37.0339C115.902-11.8063 100.594-6.25253 85.9042-4.64622C88.2933-2.67249 90.3078 1.40165 90.3078 7.5355C90.3078 16.3019 90.2697 23.4239 90.2697 25.5624C90.2697 27.3334 91.4607 29.3071 94.7973 28.689C121 19.8846 139.85-4.72496 139.85-33.6973C139.642-69.9945 110.176-99.4203 73.8792-99.4203Z"/>
  </g>
  <g id="Medium-L" transform="matrix(1 0 0 1 1673.25 1556)">
   <path class="SFSymbolsPreviewWireframe" d="M73.317-98.7182C37.335-98.7182 8.11557-69.4988 8.11557-33.5168C8.11557-4.79154 26.8123 19.729 52.6719 28.3033C55.8885 28.9126 57.1566 26.8704 57.1566 25.2019C57.1566 23.6044 57.1566 19.5643 57.0414 14.0913C38.9325 18.0604 35.0787 5.35234 35.0787 5.35234C32.142-2.21222 27.822-4.16068 27.822-4.16068C21.855-8.20078 28.3161-8.15131 28.3161-8.15131C34.8924-7.65721 38.3232-1.41025 38.3232-1.41025C44.1255 8.59688 53.5449 5.68174 57.2556 4.06268C57.8649-0.142115 59.5334-3.02931 61.4109-4.62684C46.919-6.24591 31.7468-11.8835 31.7468-36.8766C31.7468-43.9686 34.2831-49.7709 38.4879-54.3267C37.8291-55.9457 35.6007-62.5716 39.1467-71.5905C39.1467-71.5905 44.6196-73.3527 57.0693-64.9431C62.2129-66.3759 67.8505-67.0563 73.3944-67.15C78.8889-67.15 84.5265-66.3759 89.7195-64.9431C102.17-73.3527 107.643-71.5905 107.643-71.5905C111.189-62.5716 108.911-55.9457 108.301-54.3267C112.506-49.7925 115.042-43.9686 115.042-36.8766C115.042-11.862 99.8696-6.36754 85.3069-4.77001C87.6785-2.82155 89.6764 1.21855 89.6764 7.30081C89.6764 15.9903 89.6549 23.0608 89.6549 25.174C89.6549 26.9362 90.8293 28.8847 94.1396 28.2753C120.064 19.5643 138.761-4.84101 138.761-33.5663C138.519-69.5483 109.299-98.7182 73.317-98.7182Z"/>
  </g>
  <g id="Regular-L" transform="matrix(1 0 0 1 1377.25 1556)">
   <path class="SFSymbolsPreviewWireframe" d="M72.5837-97.8025C37.0128-97.8025 8.11557-68.9054 8.11557-33.3345C8.11557-4.93147 26.6118 19.3112 52.172 27.7966C55.3442 28.3945 56.6009 26.3753 56.6009 24.7283C56.6009 23.1422 56.6009 19.1465 56.4971 13.7294C38.5989 17.6642 34.7679 5.0792 34.7679 5.0792C31.8642-2.41808 27.6-4.33358 27.6-4.33358C21.6888-8.32927 28.0941-8.26836 28.0941-8.26836C34.6032-7.77426 38.001-1.59458 38.001-1.59458C43.7475 8.31229 53.0564 5.4086 56.7227 3.8225C57.3206-0.337888 58.9676-3.18068 60.8222-4.76677C46.4865-6.35287 31.4919-11.9347 31.4919-36.6714C31.4919-43.6746 34.0053-49.4211 38.1657-53.9109C37.5069-55.4969 35.3229-62.0669 38.8245-70.9856C38.8245-70.9856 44.2416-72.7364 56.558-64.4156C61.6457-65.837 67.2275-66.4958 72.7055-66.5996C78.1226-66.5996 83.7044-65.837 88.853-64.4156C101.17-72.7364 106.587-70.9856 106.587-70.9856C110.088-62.0669 107.844-55.4969 107.246-53.9109C111.406-49.4211 113.919-43.6746 113.919-36.6714C113.919-11.9347 98.9247-6.51757 84.5279-4.93147C86.8766-3.01598 88.853 0.979712 88.853 6.99469C88.853 15.584 88.853 22.5872 88.853 24.6673C88.853 26.4181 90.0059 28.3336 93.2818 27.7357C118.842 19.1465 137.339-4.99238 137.339-33.3954C137.052-68.9663 108.155-97.8025 72.5837-97.8025Z"/>
  </g>
  <g id="Light-L" transform="matrix(1 0 0 1 1081.92 1556)">
   <path class="SFSymbolsPreviewWireframe" d="M71.1546-96.4156C36.3823-96.4156 8.11557-68.1489 8.11557-33.3765C8.11557-5.60394 26.1915 18.0923 51.2053 26.4097C54.2935 26.9656 55.5081 25.0303 55.5081 23.3833C55.5081 21.8393 55.5081 17.9276 55.4464 12.6366C37.9264 16.4453 34.1794 4.15456 34.1794 4.15456C31.3178-3.17461 27.1797-5.04807 27.1797-5.04807C21.3946-8.9597 27.6738-8.85677 27.6738-8.85677C34.0147-8.36267 37.3705-2.35111 37.3705-2.35111C42.9909 7.34563 52.1318 4.48396 55.714 2.93989C56.2699-1.13644 57.9169-3.89517 59.6874-5.43924C45.6879-6.9833 31.0295-12.439 31.0295-36.6294C31.0295-43.4644 33.4589-49.0848 37.5352-53.4906C36.8764-55.0346 34.7765-61.4785 38.194-70.1871C38.194-70.1871 43.485-71.8958 55.5493-63.7432C60.5109-65.1225 65.9666-65.7813 71.3605-65.8431C76.6515-65.8431 82.1072-65.1225 87.1717-63.7432C99.2364-71.8958 104.527-70.1871 104.527-70.1871C107.944-61.4785 105.741-55.0346 105.185-53.4906C109.262-49.0848 111.691-43.4644 111.691-36.6294C111.691-12.439 97.0334-7.148 82.9307-5.60394C85.1953-3.73047 87.1717 0.181161 87.1717 6.02803C87.1717 14.4072 87.1717 21.2422 87.1717 23.2804C87.1717 24.9892 88.3246 26.8626 91.4745 26.3068C116.488 17.9276 134.564-5.70687 134.564-33.4795C134.193-68.2518 105.927-96.4156 71.1546-96.4156Z"/>
  </g>
  <g id="Thin-L" transform="matrix(1 0 0 1 787.044 1556)">
   <path class="SFSymbolsPreviewWireframe" d="M69.2647-94.5812C35.5485-94.5812 8.11557-67.1483 8.11557-33.4321C8.11557-6.49333 25.6356 16.4803 49.9268 24.5753C52.9038 25.0756 54.0629 23.2515 54.0629 21.6045C54.0629 20.1161 54.0629 16.3156 54.0567 11.1914C37.037 14.8333 33.4012 2.93165 33.4012 2.93165C30.5951-4.17517 26.6238-5.99305 26.6238-5.99305C21.0055-9.79351 27.1179-9.63498 27.1179-9.63498C33.2365-9.14088 36.5367-3.35167 36.5367-3.35167C41.9903 6.06713 50.9089 3.26105 54.3799 1.77257C54.8802-2.19259 56.5272-4.84015 58.1866-6.32863C44.6317-7.81711 30.4181-13.106 30.4181-36.5738C30.4181-43.1865 32.7362-48.6401 36.7014-52.9347C36.0426-54.4232 34.0538-60.7003 37.3602-69.1309C37.3602-69.1309 42.4844-70.7841 54.2152-62.8538C59.0101-64.1776 64.299-64.8364 69.5818-64.8425C74.706-64.8425 79.9949-64.1776 84.9483-62.8538C96.6788-70.7841 101.804-69.1309 101.804-69.1309C105.11-60.7003 102.963-54.4232 102.462-52.9347C106.427-48.6401 108.746-43.1865 108.746-36.5738C108.746-13.106 94.5318-7.98181 80.8184-6.49333C82.9719-4.67545 84.9483-0.874986 84.9483 4.74953C84.9483 12.8507 84.9483 19.4634 84.9483 21.446C84.9483 23.0992 86.1012 24.9171 89.0843 24.4168C113.376 16.3156 130.896-6.65185 130.896-33.5906C130.414-67.3069 102.981-94.5812 69.2647-94.5812Z"/>
  </g>
  <g id="Ultralight-L" transform="matrix(1 0 0 1 491.273 1556)">
   <path class="SFSymbolsPreviewWireframe" d="M68.2967-93.6417C35.1214-93.6417 8.11557-66.6359 8.11557-33.4606C8.11557-6.94887 25.3509 15.6546 49.272 23.6358C52.192 24.1076 53.3226 22.3405 53.3226 20.6935C53.3226 19.2335 53.3226 15.4899 53.3449 10.4511C36.5814 14.0076 33.0026 2.30529 33.0026 2.30529C30.225-4.68765 26.3391-6.47706 26.3391-6.47706C20.8061-10.2206 26.8332-10.0336 26.8332-10.0336C32.8379-9.53948 36.1096-3.86415 36.1096-3.86415C41.4778 5.41229 50.2825 2.63469 53.6966 1.17468C54.1684-2.73354 55.8154-5.32416 57.4178-6.78417C44.0907-8.24417 30.1049-13.4477 30.1049-36.5453C30.1049-43.0441 32.3661-48.4124 36.2743-52.65C35.6155-54.11 33.6837-60.3017 36.9331-68.59C36.9331-68.59 41.9719-70.2147 53.5319-62.3982C58.2413-63.6935 63.4448-64.3523 68.6707-64.3301C73.7095-64.3301 78.913-63.6935 83.8094-62.3982C95.3694-70.2147 100.408-68.59 100.408-68.59C103.658-60.3017 101.539-54.11 101.067-52.65C104.975-48.4124 107.237-43.0441 107.237-36.5453C107.237-13.4477 93.2506-8.40887 79.7365-6.94887C81.833-5.15946 83.8094-1.41594 83.8094 4.09469C83.8094 12.0535 83.8094 18.5524 83.8094 20.5065C83.8094 22.1312 84.9623 23.9206 87.86 23.4488C111.781 15.4899 129.017-7.13586 129.017-33.6476C128.478-66.8228 101.472-93.6417 68.2967-93.6417Z"/>
  </g>
  <g id="Black-M" transform="matrix(1 0 0 1 2871.97 1126)">
   <path class="SFSymbolsPreviewWireframe" d="M61.5581-88.2131C32.0391-88.2131 8.11557-64.2896 8.11557-34.7706C8.11557-11.2299 23.3912 8.87501 44.6338 15.8742C47.304 16.3852 48.3254 14.7251 48.3254 13.3322C48.3254 12.0556 48.3254 8.74741 48.1972 4.29021C33.3157 7.48208 30.2521-2.83655 30.2521-2.83655C27.8377-8.95318 24.2737-10.6019 24.2737-10.6019C19.4337-13.9101 24.6565-13.9107 24.6565-13.9107C30.0075-13.5279 32.8047-8.43211 32.8047-8.43211C37.5171-0.28393 45.2712-2.58135 48.3242-3.97491C48.8352-7.41069 50.2281-9.82567 51.7606-11.1023C39.9208-12.4958 27.4537-17.0807 27.4537-37.4514C27.4537-43.3022 29.4965-48.0146 32.9323-51.8225C32.4219-53.2161 30.5173-58.5665 33.4427-65.949C33.4427-65.949 37.8999-67.3533 48.0796-60.4817C52.2816-61.6307 56.8664-62.2581 61.44-62.2694C66.0141-62.2694 70.5989-61.6307 74.8003-60.4817C84.98-67.3533 89.4372-65.949 89.4372-65.949C92.3626-58.5665 90.4586-53.2161 89.9476-51.8225C93.3834-48.1315 95.4262-43.3022 95.4262-37.4514C95.4262-16.9637 82.9591-12.3896 71.003-11.113C72.9183-9.4642 74.5664-6.15602 74.5664-1.1878C74.5664 5.93959 74.4495 11.6734 74.4495 13.4498C74.4495 14.854 75.4596 16.5028 78.1411 15.9917C99.7349 8.74741 115.01-11.2293 115.01-34.77C115.001-64.289 91.0772-88.2131 61.5581-88.2131Z"/>
  </g>
  <g id="Heavy-M" transform="matrix(1 0 0 1 2575.87 1126)">
   <path class="SFSymbolsPreviewWireframe" d="M60.9251-87.3374C31.7614-87.3374 8.11557-63.6915 8.11557-34.5278C8.11557-11.2648 23.2244 8.60134 44.2007 15.5228C46.832 16.0282 47.8478 14.3794 47.8478 13.0141C47.8478 11.7431 47.8478 8.47374 47.7252 4.06102C33.0324 7.236 29.98-2.98802 29.98-2.98802C27.5989-9.05453 24.0794-10.6701 24.0794-10.6701C19.2839-13.9394 24.4622-13.9344 24.4622-13.9344C29.7631-13.5516 32.527-8.50587 32.527-8.50587C37.1949-0.44103 44.8437-2.73282 47.8578-4.09315C48.3632-7.49008 49.7286-9.8662 51.2498-11.1372C39.5378-12.4975 27.2261-17.0378 27.2261-37.1974C27.2261-42.9705 29.2577-47.6384 32.6546-51.3798C32.1442-52.7402 30.2785-58.0461 33.165-65.3453C33.165-65.3453 37.5777-66.7439 47.6409-59.9501C51.7984-61.0935 56.3387-61.6932 60.8458-61.7265C65.3478-61.7265 69.8882-61.0935 74.0507-59.9501C84.1139-66.7439 88.5266-65.3453 88.5266-65.3453C91.4131-58.0461 89.5424-52.7402 89.037-51.3798C92.4339-47.7277 94.4655-42.9705 94.4655-37.1974C94.4655-16.9485 82.1538-12.4464 70.3475-11.1755C72.2515-9.55992 73.872-6.2906 73.872-1.37249C73.872 5.67154 73.7827 11.3553 73.7827 13.0984C73.7827 14.497 74.7652 16.1125 77.4298 15.6071C98.6741 8.47374 113.783-11.2698 113.783-34.5328C113.734-63.6965 90.0888-87.3374 60.9251-87.3374Z"/>
  </g>
  <g id="Bold-M" transform="matrix(1 0 0 1 2279.84 1126)">
   <path class="SFSymbolsPreviewWireframe" d="M60.217-86.3578C31.4508-86.3578 8.11557-63.0225 8.11557-34.2563C8.11557-11.3038 23.0379 8.2952 43.7162 15.1297C46.3041 15.6288 47.3136 13.9926 47.3136 12.6581C47.3136 11.3935 47.3136 8.1676 47.1973 3.80465C32.7155 6.96073 29.6757-3.15746 29.6757-3.15746C27.3318-9.16791 23.862-10.7463 23.862-10.7463C19.1163-13.9721 24.2448-13.9608 24.2448-13.9608C29.4897-13.578 32.2164-8.58837 32.2164-8.58837C36.8346-0.616769 44.3655-2.90226 47.3362-4.22542C47.8353-7.57888 49.1698-9.91153 50.6783-11.1762C39.1094-12.4994 26.9716-16.9899 26.9716-36.9133C26.9716-42.5994 28.9906-47.2176 32.344-50.8847C31.8336-52.2078 30.0114-57.464 32.8544-64.67C32.8544-64.67 37.2174-66.0623 47.1501-59.3554C51.2579-60.4925 55.7484-61.0613 60.1812-61.1192C64.6026-61.1192 69.0931-60.4925 73.2122-59.3554C83.1449-66.0623 87.5079-64.67 87.5079-64.67C90.3509-57.464 88.5174-52.2078 88.0183-50.8847C91.3717-47.276 93.3907-42.5994 93.3907-36.9133C93.3907-16.9315 81.2529-12.5101 69.6142-11.2454C71.5056-9.667 73.0952-6.44115 73.0952-1.5791C73.0952 5.3717 73.0368 10.9993 73.0368 12.7053C73.0368 14.0976 73.9884 15.676 76.6341 15.1769C97.4878 8.1676 112.41-11.3151 112.41-34.2676C112.318-63.0338 88.9832-86.3578 60.217-86.3578Z"/>
  </g>
  <g id="Semibold-M" transform="matrix(1 0 0 1 1983.6 1126)">
   <path class="SFSymbolsPreviewWireframe" d="M59.7288-85.6824C31.2368-85.6824 8.11557-62.5613 8.11557-34.0691C8.11557-11.3307 22.9095 8.08414 43.3823 14.8587C45.9401 15.3535 46.9453 13.726 46.9453 12.4128C46.9453 11.1524 46.9453 7.95654 46.8333 3.6279C32.497 6.77096 29.466-3.27427 29.466-3.27427C27.1476-9.24607 23.7123-10.7988 23.7123-10.7988C19.0007-13.9947 24.095-13.979 24.095-13.979C29.3012-13.5962 32.0023-8.64525 32.0023-8.64525C36.5862-0.737923 44.0359-3.01907 46.9767-4.31661C47.4714-7.6401 48.7846-9.94279 50.2845-11.2031C38.8141-12.5007 26.7961-16.9569 26.7961-36.7174C26.7961-42.3436 28.8065-46.9274 32.13-50.5433C31.6195-51.8408 29.8273-57.0627 32.6403-64.2044C32.6403-64.2044 36.9689-65.5924 46.8119-58.9454C50.8853-60.0781 55.3416-60.6257 59.723-60.7005C64.0889-60.7005 68.5451-60.0781 72.6341-58.9454C82.477-65.5924 86.8056-64.2044 86.8056-64.2044C89.6188-57.0627 87.8108-51.8408 87.316-50.5433C90.6395-46.9646 92.6498-42.3436 92.6498-36.7174C92.6498-16.9197 80.6319-12.5539 69.1087-11.2936C70.9913-9.74082 72.5597-6.54493 72.5597-1.72154C72.5597 5.16499 72.5226 10.754 72.5226 12.4343C72.5226 13.8223 73.4529 15.375 76.0856 14.8803C96.6701 7.95654 111.464-11.3464 111.464-34.0848C111.342-62.5769 88.2211-85.6824 59.7288-85.6824Z"/>
  </g>
  <g id="Medium-M" transform="matrix(1 0 0 1 1687.25 1126)">
   <path class="SFSymbolsPreviewWireframe" d="M59.3587-85.1704C31.0743-85.1704 8.11557-62.2115 8.11557-33.9272C8.11557-11.3511 22.8119 7.92411 43.129 14.6532C45.6642 15.1447 46.666 13.5238 46.666 12.2267C46.666 10.9697 46.666 7.79651 46.5574 3.49389C32.3314 6.62707 29.3069-3.36285 29.3069-3.36285C27.008-9.30533 23.5986-10.8386 23.5986-10.8386C18.9131-14.0118 23.9814-13.9929 23.9814-13.9929C29.1582-13.6101 31.8399-8.68838 31.8399-8.68838C36.3978-0.829786 43.786-3.10765 46.7039-4.38575C47.1954-7.68652 48.4924-9.96649 49.9857-11.2235C38.5901-12.5017 26.6631-16.9319 26.6631-36.5689C26.6631-42.1496 28.6668-46.7075 31.9675-50.2845C31.4571-51.5626 29.6876-56.7584 32.4779-63.8514C32.4779-63.8514 36.7806-65.2361 46.5553-58.6345C50.6027-59.764 55.0329-60.2954 59.3755-60.383C63.6992-60.383 68.1294-59.764 72.1958-58.6345C81.9705-65.2361 86.2731-63.8514 86.2731-63.8514C89.0635-56.7584 87.275-51.5626 86.7835-50.2845C90.0843-46.7285 92.088-42.1496 92.088-36.5689C92.088-16.9108 80.1609-12.5872 68.7253-11.3301C70.6015-9.79679 72.1537-6.62362 72.1537-1.82954C72.1537 5.00825 72.1327 10.5679 72.1327 12.2288C72.1327 13.6135 73.0469 15.1468 75.6697 14.6554C96.0499 7.79651 110.746-11.3701 110.746-33.9461C110.602-62.2305 87.6431-85.1704 59.3587-85.1704Z"/>
  </g>
  <g id="Regular-M" transform="matrix(1 0 0 1 1391.01 1126)">
   <path class="SFSymbolsPreviewWireframe" d="M58.876-84.5024C30.8626-84.5024 8.11557-61.7554 8.11557-33.742C8.11557-11.3778 22.6848 7.71538 42.7988 14.3852C45.3043 14.8724 46.3019 13.2601 46.3019 11.9841C46.3019 10.7313 46.3019 7.58778 46.1975 3.31909C32.1154 6.43938 29.0995-3.47837 29.0995-3.47837C26.8259-9.38263 23.4504-10.8906 23.4504-10.8906C18.7989-14.0341 23.8332-14.0109 23.8332-14.0109C28.9719-13.6281 31.6282-8.74463 31.6282-8.74463C36.1521-0.949609 43.46-3.22317 46.3483-4.47594C46.8355-7.74707 48.1115-9.9974 49.5962-11.2502C38.2981-12.5029 26.4896-16.8992 26.4896-36.3752C26.4896-41.8966 28.4847-46.4205 31.7558-49.9468C31.2454-51.1996 29.5055-56.3615 32.2662-63.3909C32.2662-63.3909 36.5349-64.7713 46.2207-58.229C50.2342-59.3542 54.6305-59.8646 58.9224-59.969C63.1911-59.969 67.5874-59.3542 71.6242-58.229C81.31-64.7713 85.5786-63.3909 85.5786-63.3909C88.3394-56.3615 86.5762-51.1996 86.089-49.9468C89.3602-46.4205 91.3553-41.8966 91.3553-36.3752C91.3553-16.8992 79.5468-12.6305 68.2254-11.3778C70.093-9.8698 71.6242-6.72627 71.6242-1.97041C71.6242 4.80382 71.6242 10.3253 71.6242 11.9608C71.6242 13.3412 72.5174 14.8492 75.1273 14.362C95.2412 7.58778 109.81-11.401 109.81-33.7653C109.636-61.7786 86.8893-84.5024 58.876-84.5024Z"/>
  </g>
  <g id="Light-M" transform="matrix(1 0 0 1 1095.54 1126)">
   <path class="SFSymbolsPreviewWireframe" d="M57.5948-83.259C30.2974-83.259 8.11557-61.0771 8.11557-33.7797C8.11557-11.9807 22.308 6.62263 41.9321 13.1418C44.3623 13.5912 45.3221 12.0543 45.3221 10.7783C45.3221 9.56319 45.3221 6.49503 45.2555 2.33938C31.5125 5.34663 28.5719-4.30736 28.5719-4.30736C26.3361-10.0609 23.0736-11.5312 23.0736-11.5312C18.5351-14.5993 23.4564-14.5384 23.4564-14.5384C28.4443-14.1556 31.063-9.42289 31.063-9.42289C35.4739-1.81628 42.631-4.05216 45.444-5.26724C45.8935-8.46301 47.1695-10.638 48.5788-11.8531C37.5822-13.0681 26.0751-17.3514 26.0751-36.3375C26.0751-41.7082 27.9949-46.1191 31.1906-49.57C30.6802-50.7851 29.0157-55.834 31.701-62.675C31.701-62.675 35.8567-64.0177 45.3164-57.6261C49.2168-58.7136 53.5001-59.224 57.7166-59.2907C61.8723-59.2907 66.1555-58.7136 70.1169-57.6261C79.5766-64.0177 83.7323-62.675 83.7323-62.675C86.4176-55.834 84.6921-50.7851 84.2427-49.57C87.4384-46.1191 89.3582-41.7082 89.3582-36.3375C89.3582-17.3514 77.8511-13.1957 66.7935-11.9807C68.5857-10.5104 70.1169-7.44221 70.1169-2.83708C70.1169 3.74874 70.1169 9.11948 70.1169 10.7174C70.1169 12.06 71.0101 13.5303 73.507 13.0808C93.131 6.49503 107.324-12.0416 107.324-33.8406C107.074-61.138 84.8922-83.259 57.5948-83.259Z"/>
  </g>
  <g id="Thin-M" transform="matrix(1 0 0 1 800.475 1126)">
   <path class="SFSymbolsPreviewWireframe" d="M55.9004-81.6144C29.5499-81.6144 8.11557-60.1801 8.11557-33.8296C8.11557-12.778 21.8097 5.17737 40.7859 11.4972C43.1164 11.8968 44.0264 10.4595 44.0264 9.18351C44.0264 8.01827 44.0264 5.04977 44.0096 1.04363C30.7152 3.90137 27.8743-5.40376 27.8743-5.40376C25.6882-10.9579 22.5753-12.3784 22.5753-12.3784C18.1863-15.3469 22.9581-15.2361 22.9581-15.2361C27.7467-14.8533 30.3155-10.3199 30.3155-10.3199C34.5768-2.96251 41.5346-5.14856 44.2479-6.31381C44.6476-9.4099 45.9236-11.4852 47.2333-12.6504C36.6353-13.8157 25.5269-17.9494 25.5269-36.2876C25.5269-41.459 27.347-45.7204 30.4431-49.0717C29.9327-50.2369 28.3678-55.1363 30.9535-61.7281C30.9535-61.7281 34.9596-63.0209 44.1203-56.8288C47.8713-57.8664 52.005-58.3768 56.1219-58.3937C60.128-58.3937 64.2618-57.8664 68.1235-56.8288C77.2842-63.0209 81.2903-61.7281 81.2903-61.7281C83.876-55.1363 82.2004-50.2369 81.8007-49.0717C84.8968-45.7204 86.7169-41.459 86.7169-36.2876C86.7169-17.9494 75.6085-13.9433 64.8998-12.778C66.5923-11.3576 68.1235-8.3891 68.1235-3.98331C68.1235 2.35332 68.1235 7.52471 68.1235 9.07276C68.1235 10.3656 69.0167 11.7861 71.364 11.3864C90.3402 5.04977 104.035-12.8888 104.035-33.9403C103.685-60.2908 82.2509-81.6144 55.9004-81.6144Z"/>
  </g>
  <g id="Ultralight-M" transform="matrix(1 0 0 1 504.607 1126)">
   <path class="SFSymbolsPreviewWireframe" d="M55.0325-80.772C29.167-80.772 8.11557-59.7206 8.11557-33.8551C8.11557-13.1865 21.5544 4.43712 40.1987 10.6548C42.4782 11.0289 43.3627 9.64268 43.3627 8.36668C43.3627 7.22696 43.3627 4.30952 43.3714 0.379956C30.3067 3.16112 27.5168-5.96533 27.5168-5.96533C25.3563-11.4174 22.32-12.8123 22.32-12.8123C18.0076-15.7298 22.7028-15.5935 22.7028-15.5935C27.3892-15.2107 29.9326-10.7794 29.9326-10.7794C34.1173-3.54961 40.973-5.71013 43.6353-6.84985C44.0094-9.89489 45.2854-11.9191 46.544-13.0589C36.1502-14.1986 25.2461-18.2557 25.2461-36.2621C25.2461-41.3314 27.0151-45.5162 30.0602-48.8164C29.5498-49.9561 28.0359-54.7789 30.5706-61.2431C30.5706-61.2431 34.5001-62.5104 43.5077-56.4203C47.182-57.4325 51.2392-57.9429 55.305-57.9342C59.2346-57.9342 63.2918-57.4325 67.1024-56.4203C76.1099-62.5104 80.0395-61.2431 80.0395-61.2431C82.5741-54.7789 80.924-49.9561 80.5499-48.8164C83.5949-45.5162 85.364-41.3314 85.364-36.2621C85.364-18.2557 74.4598-14.3262 63.9298-13.1865C65.5712-11.7915 67.1024-8.87409 67.1024-4.57041C67.1024 1.6386 67.1024 6.70788 67.1024 8.23041C67.1024 9.49773 67.9956 10.8926 70.2664 10.5185C88.9107 4.30952 102.349-13.3227 102.349-33.9914C101.949-59.8569 80.898-80.772 55.0325-80.772Z"/>
  </g>
  <g id="Black-S" transform="matrix(1 0 0 1 2883.41 696)">
   <path class="SFSymbolsPreviewWireframe" d="M50.1156-76.95C26.9156-76.95 8.11557-58.15 8.11557-34.95C8.11557-16.45 20.1156-0.65 36.8156 4.85C38.9156 5.25 39.7156 3.95 39.7156 2.85C39.7156 1.85 39.7156-0.75 39.6156-4.25C27.9156-1.75 25.5156-9.85 25.5156-9.85C23.6156-14.65 20.8156-15.95 20.8156-15.95C17.0156-18.55 21.1156-18.55 21.1156-18.55C25.3156-18.25 27.5156-14.25 27.5156-14.25C31.2156-7.85 37.3156-9.65 39.7156-10.75C40.1156-13.45 41.2156-15.35 42.4156-16.35C33.1156-17.45 23.3156-21.05 23.3156-37.05C23.3156-41.65 24.9156-45.35 27.6156-48.35C27.2156-49.45 25.7156-53.65 28.0156-59.45C28.0156-59.45 31.5156-60.55 39.5156-55.15C42.8156-56.05 46.4156-56.55 50.0156-56.55C53.6156-56.55 57.2156-56.05 60.5156-55.15C68.5156-60.55 72.0156-59.45 72.0156-59.45C74.3156-53.65 72.8156-49.45 72.4156-48.35C75.1156-45.45 76.7156-41.65 76.7156-37.05C76.7156-20.95 66.9156-17.35 57.5156-16.35C59.0156-15.05 60.3156-12.45 60.3156-8.55C60.3156-2.95 60.2156 1.55 60.2156 2.95C60.2156 4.05 61.0156 5.35 63.1156 4.95C80.1156-0.75 92.1156-16.45 92.1156-34.95C92.1156-58.15 73.3156-76.95 50.1156-76.95Z"/>
  </g>
  <g id="Heavy-S" transform="matrix(1 0 0 1 2587.07 696)">
   <path class="SFSymbolsPreviewWireframe" d="M49.7379-76.3599C26.7503-76.3599 8.11557-57.7252 8.11557-34.7376C8.11557-16.4028 20.0211-0.744408 36.5559 4.70839C38.6323 5.10839 39.4323 3.80839 39.4323 2.73199C39.4323 1.73199 39.4323-0.844408 39.3323-4.32081C27.7503-1.82081 25.3503-9.8736 25.3503-9.8736C23.4739-14.65 20.6975-15.9264 20.6975-15.9264C16.9211-18.5028 20.9975-18.5028 20.9975-18.5028C25.1739-18.2028 27.3503-14.2264 27.3503-14.2264C31.0267-7.8736 37.0559-9.6736 39.4323-10.75C39.8323-13.4264 40.9087-15.3028 42.1087-16.3028C32.8795-17.3792 23.1739-20.9556 23.1739-36.8376C23.1739-41.3904 24.7739-45.0668 27.4503-48.0196C27.0503-49.096 25.5739-53.2724 27.8503-59.0252C27.8503-59.0252 31.3267-60.1252 39.2559-54.7724C42.5323-55.6724 46.1087-56.1488 49.6615-56.1724C53.2143-56.1724 56.7907-55.6724 60.0671-54.7724C67.9963-60.1252 71.4727-59.0252 71.4727-59.0252C73.7491-53.2724 72.2727-49.096 71.8727-48.0196C74.5491-45.1432 76.1491-41.3904 76.1491-36.8376C76.1491-20.8792 66.4435-17.3264 57.1379-16.3264C58.6379-15.05 59.9143-12.4736 59.9143-8.5972C59.9143-3.04441 59.8379 1.43199 59.8379 2.80839C59.8379 3.90839 60.6143 5.18479 62.7143 4.78479C79.4783-0.844408 91.3839-16.4028 91.3839-34.7376C91.3603-57.7252 72.7255-76.3599 49.7379-76.3599Z"/>
  </g>
  <g id="Bold-S" transform="matrix(1 0 0 1 2290.76 696)">
   <path class="SFSymbolsPreviewWireframe" d="M49.3156-75.7C26.5656-75.7 8.11557-57.25 8.11557-34.5C8.11557-16.35 19.9156-0.85 36.2656 4.55C38.3156 4.95 39.1156 3.65 39.1156 2.6C39.1156 1.6 39.1156-0.95 39.0156-4.4C27.5656-1.9 25.1656-9.9 25.1656-9.9C23.3156-14.65 20.5656-15.9 20.5656-15.9C16.8156-18.45 20.8656-18.45 20.8656-18.45C25.0156-18.15 27.1656-14.2 27.1656-14.2C30.8156-7.9 36.7656-9.7 39.1156-10.75C39.5156-13.4 40.5656-15.25 41.7656-16.25C32.6156-17.3 23.0156-20.85 23.0156-36.6C23.0156-41.1 24.6156-44.75 27.2656-47.65C26.8656-48.7 25.4156-52.85 27.6656-58.55C27.6656-58.55 31.1156-59.65 38.9656-54.35C42.2156-55.25 45.7656-55.7 49.2656-55.75C52.7656-55.75 56.3156-55.25 59.5656-54.35C67.4156-59.65 70.8656-58.55 70.8656-58.55C73.1156-52.85 71.6656-48.7 71.2656-47.65C73.9156-44.8 75.5156-41.1 75.5156-36.6C75.5156-20.8 65.9156-17.3 56.7156-16.3C58.2156-15.05 59.4656-12.5 59.4656-8.65C59.4656-3.15 59.4156 1.3 59.4156 2.65C59.4156 3.75 60.1656 5 62.2656 4.6C78.7656-0.95 90.5656-16.35 90.5656-34.5C90.5156-57.25 72.0656-75.7 49.3156-75.7Z"/>
  </g>
  <g id="Semibold-S" transform="matrix(1 0 0 1 1994.34 696)">
   <path class="SFSymbolsPreviewWireframe" d="M49.0243-75.245C26.4381-75.245 8.11557-56.9224 8.11557-34.3362C8.11557-16.3136 19.8428-0.9228 36.0654 4.4408C38.0972 4.8408 38.8972 3.5408 38.8972 2.509C38.8972 1.509 38.8972-1.0228 38.7971-4.4546C27.4381-1.9546 25.0381-9.9182 25.0381-9.9182C23.2063-14.65 20.4745-15.8818 20.4745-15.8818C16.7427-18.4136 20.7745-18.4136 20.7745-18.4136C24.9063-18.1136 27.0381-14.1818 27.0381-14.1818C30.6699-7.9182 36.5654-9.7182 38.8972-10.75C39.2971-13.3818 40.329-15.2136 41.5289-16.2136C32.4335-17.2454 22.9063-20.7772 22.9063-36.4362C22.9063-40.8998 24.5063-44.5316 27.1381-47.3952C26.7381-48.427 25.3064-52.5588 27.5381-58.2224C27.5381-58.2224 30.9699-59.3224 38.7653-54.0588C41.9971-54.9588 45.5289-55.3906 48.9925-55.4588C52.4561-55.4588 55.988-54.9588 59.2198-54.0588C67.0152-59.3224 70.447-58.2224 70.447-58.2224C72.6788-52.5588 71.2469-48.427 70.847-47.3952C73.4787-44.5634 75.0788-40.8998 75.0788-36.4362C75.0788-20.7454 65.5516-17.2818 56.4243-16.2818C57.9243-15.05 59.1561-12.5182 59.1561-8.6864C59.1561-3.2228 59.1244 1.209 59.1244 2.5408C59.1244 3.6408 59.8562 4.8726 61.9561 4.4726C78.2742-1.0228 90.0014-16.3136 90.0014-34.3362C89.9331-56.9224 71.6105-75.245 49.0243-75.245Z"/>
  </g>
  <g id="Medium-S" transform="matrix(1 0 0 1 1697.84 696)">
   <path class="SFSymbolsPreviewWireframe" d="M48.8036-74.9C26.3416-74.9 8.11557-56.674 8.11557-34.212C8.11557-16.286 19.7876-0.978 35.9136 4.358C37.9316 4.758 38.7316 3.458 38.7316 2.44C38.7316 1.44 38.7316-1.078 38.6316-4.496C27.3416-1.996 24.9416-9.932 24.9416-9.932C23.1236-14.65 20.4056-15.868 20.4056-15.868C16.6876-18.386 20.7056-18.386 20.7056-18.386C24.8236-18.086 26.9416-14.168 26.9416-14.168C30.5596-7.932 36.4136-9.732 38.7316-10.75C39.1316-13.368 40.1496-15.186 41.3496-16.186C32.2956-17.204 22.8236-20.722 22.8236-36.312C22.8236-40.748 24.4236-44.366 27.0416-47.202C26.6416-48.22 25.2236-52.338 27.4416-57.974C27.4416-57.974 30.8596-59.074 38.6136-53.838C41.8316-54.738 45.3496-55.156 48.7856-55.238C52.2216-55.238 55.7396-54.738 58.9576-53.838C66.7116-59.074 70.1296-57.974 70.1296-57.974C72.3476-52.338 70.9296-48.22 70.5296-47.202C73.1476-44.384 74.7476-40.748 74.7476-36.312C74.7476-20.704 65.2756-17.268 56.2036-16.268C57.7036-15.05 58.9216-12.532 58.9216-8.714C58.9216-3.278 58.9036 1.14 58.9036 2.458C58.9036 3.558 59.6216 4.776 61.7216 4.376C77.9016-1.078 89.5736-16.286 89.5736-34.212C89.4916-56.674 71.2656-74.9 48.8036-74.9Z"/>
  </g>
  <g id="Regular-S" transform="matrix(1 0 0 1 1401.41 696)">
   <path class="SFSymbolsPreviewWireframe" d="M48.5156-74.45C26.2156-74.45 8.11557-56.35 8.11557-34.05C8.11557-16.25 19.7156-1.05 35.7156 4.25C37.7156 4.65 38.5156 3.35 38.5156 2.35C38.5156 1.35 38.5156-1.15 38.4156-4.55C27.2156-2.05 24.8156-9.95 24.8156-9.95C23.0156-14.65 20.3156-15.85 20.3156-15.85C16.6156-18.35 20.6156-18.35 20.6156-18.35C24.7156-18.05 26.8156-14.15 26.8156-14.15C30.4156-7.95 36.2156-9.75 38.5156-10.75C38.9156-13.35 39.9156-15.15 41.1156-16.15C32.1156-17.15 22.7156-20.65 22.7156-36.15C22.7156-40.55 24.3156-44.15 26.9156-46.95C26.5156-47.95 25.1156-52.05 27.3156-57.65C27.3156-57.65 30.7156-58.75 38.4156-53.55C41.6156-54.45 45.1156-54.85 48.5156-54.95C51.9156-54.95 55.4156-54.45 58.6156-53.55C66.3156-58.75 69.7156-57.65 69.7156-57.65C71.9156-52.05 70.5156-47.95 70.1156-46.95C72.7156-44.15 74.3156-40.55 74.3156-36.15C74.3156-20.65 64.9156-17.25 55.9156-16.25C57.4156-15.05 58.6156-12.55 58.6156-8.75C58.6156-3.35 58.6156 1.05 58.6156 2.35C58.6156 3.45 59.3156 4.65 61.4156 4.25C77.4156-1.15 89.0156-16.25 89.0156-34.05C88.9156-56.35 70.8156-74.45 48.5156-74.45Z"/>
  </g>
  <g id="Light-S" transform="matrix(1 0 0 1 1105.8 696)">
   <path class="SFSymbolsPreviewWireframe" d="M47.3822-73.35C25.7155-73.35 8.11557-55.75 8.11557-34.0833C8.11557-16.7833 19.3822-2.01667 34.9489 3.15C36.8822 3.51667 37.6489 2.28333 37.6489 1.28333C37.6489 0.316667 37.6489-2.11667 37.5822-5.41667C26.6822-3.01667 24.3489-10.6833 24.3489-10.6833C22.5822-15.25 19.9822-16.4167 19.9822-16.4167C16.3822-18.85 20.2822-18.8167 20.2822-18.8167C24.2489-18.5167 26.3155-14.75 26.3155-14.75C29.8155-8.71667 35.4822-10.4833 37.7155-11.45C38.0822-13.9833 39.0822-15.7167 40.2155-16.6833C31.4822-17.65 22.3489-21.05 22.3489-36.1167C22.3489-40.3833 23.8822-43.8833 26.4155-46.6167C26.0155-47.5833 24.6822-51.5833 26.8155-57.0167C26.8155-57.0167 30.1155-58.0833 37.6155-53.0167C40.7155-53.8833 44.1155-54.2833 47.4489-54.35C50.7489-54.35 54.1489-53.8833 57.2822-53.0167C64.7822-58.0833 68.0822-57.0167 68.0822-57.0167C70.2155-51.5833 68.8489-47.5833 68.4822-46.6167C71.0155-43.8833 72.5489-40.3833 72.5489-36.1167C72.5489-21.05 63.4155-17.75 54.6489-16.7833C56.0822-15.6167 57.2822-13.1833 57.2822-9.51667C57.2822-4.28333 57.2822-0.0166667 57.2822 1.25C57.2822 2.31667 57.9822 3.48333 59.9822 3.11667C75.5489-2.11667 86.8155-16.8167 86.8155-34.1167C86.6489-55.7833 69.0489-73.35 47.3822-73.35Z"/>
  </g>
  <g id="Thin-S" transform="matrix(1 0 0 1 810.539 696)">
   <path class="SFSymbolsPreviewWireframe" d="M45.8833-71.8952C25.0543-71.8952 8.11557-54.9565 8.11557-34.1274C8.11557-17.4887 18.9414-3.29516 33.9349 1.69516C35.7801 2.01774 36.5027 0.872581 36.5027-0.127419C36.5027-1.05 36.5027-3.39516 36.4801-6.5629C25.9769-4.29516 23.7317-11.6532 23.7317-11.6532C22.0091-16.0435 19.5414-17.1661 19.5414-17.1661C16.0736-19.5113 19.8414-19.4339 19.8414-19.4339C23.6317-19.1339 25.6543-15.5435 25.6543-15.5435C29.022-9.73065 34.5124-11.4532 36.6575-12.3758C36.9801-14.821 37.9801-16.4661 39.0253-17.3887C30.6446-18.3113 21.864-21.579 21.864-36.0726C21.864-40.1629 23.3091-43.5306 25.7543-46.1758C25.3543-47.0984 24.1091-50.9661 26.1543-56.179C26.1543-56.179 29.322-57.2016 36.5575-52.3113C39.5253-53.1339 42.793-53.5339 46.0382-53.5565C49.2059-53.5565 52.4736-53.1339 55.5188-52.3113C62.7543-57.2016 65.922-56.179 65.922-56.179C67.9672-50.9661 66.6446-47.0984 66.322-46.1758C68.7672-43.5306 70.2124-40.1629 70.2124-36.0726C70.2124-21.579 61.4317-18.4113 52.9736-17.4887C54.3188-16.3661 55.5188-14.021 55.5188-10.5306C55.5188-5.51774 55.5188-1.42742 55.5188-0.204839C55.5188 0.817742 56.2188 1.94032 58.0865 1.61774C73.0801-3.39516 83.9059-17.5661 83.9059-34.2048C83.6511-55.0339 66.7124-71.8952 45.8833-71.8952Z"/>
  </g>
  <g id="Ultralight-S" transform="matrix(1 0 0 1 514.573 696)">
   <path class="SFSymbolsPreviewWireframe" d="M45.1156-71.15C24.7156-71.15 8.11557-54.55 8.11557-34.15C8.11557-17.85 18.7156-3.95 33.4156 0.95C35.2156 1.25 35.9156 0.15 35.9156-0.85C35.9156-1.75 35.9156-4.05 35.9156-7.15C25.6156-4.95 23.4156-12.15 23.4156-12.15C21.7156-16.45 19.3156-17.55 19.3156-17.55C15.9156-19.85 19.6156-19.75 19.6156-19.75C23.3156-19.45 25.3156-15.95 25.3156-15.95C28.6156-10.25 34.0156-11.95 36.1156-12.85C36.4156-15.25 37.4156-16.85 38.4156-17.75C30.2156-18.65 21.6156-21.85 21.6156-36.05C21.6156-40.05 23.0156-43.35 25.4156-45.95C25.0156-46.85 23.8156-50.65 25.8156-55.75C25.8156-55.75 28.9156-56.75 36.0156-51.95C38.9156-52.75 42.1156-53.15 45.3156-53.15C48.4156-53.15 51.6156-52.75 54.6156-51.95C61.7156-56.75 64.8156-55.75 64.8156-55.75C66.8156-50.65 65.5156-46.85 65.2156-45.95C67.6156-43.35 69.0156-40.05 69.0156-36.05C69.0156-21.85 60.4156-18.75 52.1156-17.85C53.4156-16.75 54.6156-14.45 54.6156-11.05C54.6156-6.15 54.6156-2.15 54.6156-0.95C54.6156 0.05 55.3156 1.15 57.1156 0.85C71.8156-4.05 82.4156-17.95 82.4156-34.25C82.1156-54.65 65.5156-71.15 45.1156-71.15Z"/>
  </g>
 </g>
</svg>
